<svg width="20" height="20" viewBox="0 0 20 20" fill="none" xmlns="http://www.w3.org/2000/svg">
<g id="Shopping-Bag-Hand-Bag-2--Streamline-Flex" clip-path="url(#clip0_2071_2731)">
<g id="shopping-bag-hand-bag-2--shopping-bag-purse-goods-item-products">
<path id="Union" fill-rule="evenodd" clip-rule="evenodd" d="M10.002 2.45927C8.62131 2.45927 7.50202 3.57855 7.50202 4.95927V5.67356H12.502V4.95927C12.502 3.57855 11.3827 2.45927 10.002 2.45927ZM14.6449 5.67356V4.95927C14.6449 2.39508 12.5662 0.316406 10.002 0.316406C7.43784 0.316406 5.35917 2.39508 5.35917 4.95927V5.67356H3.92931C2.98052 5.67356 2.13517 6.29861 1.87521 7.2225C1.26433 9.3936 0.716309 11.776 0.716309 14.7484C0.716309 15.9604 1.12324 17.0179 1.87815 17.8196C2.62761 18.6154 3.67695 19.1141 4.89389 19.3005C6.20347 19.5011 7.82707 19.6428 10.002 19.6428C12.177 19.6428 13.8006 19.5011 15.1102 19.3005C16.327 19.1141 17.3765 18.6154 18.1259 17.8196C18.8807 17.0179 19.2877 15.9604 19.2877 14.7484C19.2877 11.776 18.7397 9.3936 18.1289 7.2225C17.8689 6.29861 17.0235 5.67356 16.0747 5.67356H14.6449Z" fill="#A67DFE"/>
</g>
</g>
<defs>
<clipPath id="clip0_2071_2731">
<rect width="20" height="20" fill="white"/>
</clipPath>
</defs>
</svg>
