<svg width="20" height="20" viewBox="0 0 20 20" fill="none" xmlns="http://www.w3.org/2000/svg">
<g id="Investing-And-Banking--Streamline-Flex">
<g id="investing-and-banking">
<path id="Union" d="M19.5417 6.92182C19.711 4.57143 13.134 0.174698 13.134 2.15879V4.46547C11.9761 4.45212 10.8296 4.46872 9.64353 4.51526C8.96696 4.54182 8.40137 5.04919 8.34753 5.72415C8.2852 6.5053 8.2852 7.26697 8.34753 8.04813C8.40137 8.72309 8.96696 9.23046 9.64353 9.25702C10.3354 9.28416 11.0138 9.30113 11.6889 9.30789C12.4842 9.31587 13.134 9.95652 13.134 10.7519V11.6135C13.134 13.5575 19.7337 9.1921 19.5417 6.92182Z" fill="#A67DFE"/>
<path id="Union_2" d="M0.459675 13.164C0.290348 10.8136 6.86739 6.41689 6.86739 8.40097V9.26253C6.86739 10.0579 7.51712 10.6986 8.31251 10.7066C8.98755 10.7133 9.66595 10.7303 10.3578 10.7575C11.0344 10.784 11.6 11.2914 11.6538 11.9663C11.7162 12.7475 11.7162 13.5092 11.6538 14.2903C11.6 14.9653 11.0344 15.4727 10.3578 15.4991C9.17173 15.5457 8.02525 15.5623 6.86739 15.549V17.8557C6.86739 19.7997 0.267696 15.4343 0.459675 13.164Z" fill="#A67DFE"/>
</g>
</g>
</svg>
