<svg width="20" height="22" viewBox="0 0 20 22" fill="none" xmlns="http://www.w3.org/2000/svg">
<g id="svgexport-21">
<path id="Vector" d="M11.6691 2.6664C11.6691 2.30188 11.4322 1.97967 11.0843 1.87098C10.7363 1.76228 10.3581 1.89236 10.1506 2.19206L2.65062 13.0254C2.47419 13.2803 2.45377 13.6119 2.59762 13.8865C2.74148 14.161 3.02582 14.3331 3.33577 14.3331H8.33577V19.3331C8.33577 19.6976 8.57269 20.0198 8.92061 20.1285C9.26861 20.2372 9.64677 20.1071 9.85427 19.8074L17.3543 8.97409C17.5307 8.71923 17.5511 8.38753 17.4073 8.11298C17.2634 7.83843 16.979 7.6664 16.6691 7.6664H11.6691V2.6664Z" fill="#A67DFE"/>
</g>
</svg>
