<svg width="20" height="20" viewBox="0 0 20 20" fill="none" xmlns="http://www.w3.org/2000/svg">
<g id="svgexport-15 1" clip-path="url(#clip0_2071_2565)">
<path id="Vector" fill-rule="evenodd" clip-rule="evenodd" d="M5.25057 4C5.51409 3.99997 5.76926 4.09246 5.97156 4.26133C6.17386 4.43019 6.31048 4.66473 6.35757 4.924L6.73557 7.006C6.80384 7.38112 6.98484 7.72651 7.25444 7.99612C7.52405 8.26573 7.86943 8.44674 8.24457 8.515L10.3266 8.893C10.586 8.93997 10.8206 9.07652 10.9896 9.27884C11.1586 9.48116 11.2511 9.73641 11.2511 10C11.2511 10.2636 11.1586 10.5188 10.9896 10.7212C10.8206 10.9235 10.586 11.06 10.3266 11.107L8.24457 11.485C7.86943 11.5533 7.52405 11.7343 7.25444 12.0039C6.98484 12.2735 6.80384 12.6189 6.73557 12.994L6.35757 15.076C6.31059 15.3354 6.17404 15.5701 5.97172 15.739C5.7694 15.9081 5.51416 16.0006 5.25057 16.0006C4.98696 16.0006 4.73174 15.9081 4.52942 15.739C4.3271 15.5701 4.19053 15.3354 4.14357 15.076L3.76557 12.994C3.69731 12.6189 3.51628 12.2735 3.24669 12.0039C2.97708 11.7343 2.63169 11.5533 2.25657 11.485L0.17457 11.107C-0.084825 11.06 -0.319485 10.9235 -0.48846 10.7212C-0.657435 10.5188 -0.75 10.2636 -0.75 10C-0.75 9.73641 -0.657435 9.48116 -0.48846 9.27884C-0.319485 9.07652 -0.084825 8.93997 0.17457 8.893L2.25657 8.515C2.63169 8.44674 2.97708 8.26573 3.24669 7.99612C3.51628 7.72651 3.69731 7.38112 3.76557 7.006L4.14357 4.924C4.19064 4.66473 4.32726 4.43019 4.52956 4.26133C4.73187 4.09246 4.98703 3.99997 5.25057 4ZM15.7506 -0.5C15.9949 -0.499955 16.2328 -0.42029 16.428 -0.27305C16.623 -0.125825 16.7649 0.08095 16.8321 0.316L17.1246 1.339C17.3016 1.9615 17.7891 2.449 18.4116 2.626L19.4346 2.9185C19.6695 2.98579 19.876 3.12772 20.0232 3.32284C20.1702 3.51796 20.2497 3.75566 20.2497 4C20.2497 4.24434 20.1702 4.48204 20.0232 4.67716C19.876 4.87228 19.6695 5.01421 19.4346 5.0815L18.4116 5.374C18.1054 5.46159 17.8266 5.6257 17.6014 5.85087C17.3763 6.07603 17.2122 6.35484 17.1246 6.661L16.8321 7.684C16.7647 7.9189 16.6228 8.12549 16.4277 8.27257C16.2325 8.41965 15.9949 8.49919 15.7506 8.49919C15.5062 8.49919 15.2685 8.41965 15.0733 8.27257C14.8783 8.12549 14.7363 7.9189 14.6691 7.684L14.3766 6.661C14.289 6.35484 14.1249 6.07603 13.8997 5.85087C13.6746 5.6257 13.3957 5.46159 13.0896 5.374L12.0666 5.0815C11.8317 5.01421 11.6251 4.87228 11.478 4.67716C11.3309 4.48204 11.2514 4.24434 11.2514 4C11.2514 3.75566 11.3309 3.51796 11.478 3.32284C11.6251 3.12772 11.8317 2.98579 12.0666 2.9185L13.0896 2.626C13.3957 2.53842 13.6746 2.3743 13.8997 2.14913C14.1249 1.92397 14.289 1.64517 14.3766 1.339L14.6691 0.316C14.7361 0.08095 14.878 -0.125825 15.0732 -0.27305C15.2683 -0.42029 15.5061 -0.499955 15.7506 -0.5ZM12.7506 14.5C13.0015 14.4999 13.2453 14.5837 13.4433 14.7381C13.6411 14.8924 13.7817 15.1086 13.8426 15.352C13.9065 15.6071 14.0383 15.8403 14.2243 16.0261C14.4103 16.2121 14.6434 16.3441 14.8986 16.408C15.1425 16.4685 15.3592 16.6089 15.514 16.8067C15.669 17.0045 15.7531 17.2488 15.7531 17.5C15.7531 17.7512 15.669 17.9955 15.514 18.1933C15.3592 18.3911 15.1425 18.5315 14.8986 18.592C14.6434 18.6559 14.4103 18.7879 14.2243 18.9739C14.0383 19.1597 13.9065 19.3929 13.8426 19.648C13.7821 19.8919 13.6417 20.1087 13.4439 20.2635C13.2459 20.4184 13.0018 20.5026 12.7506 20.5026C12.4992 20.5026 12.2551 20.4184 12.0573 20.2635C11.8593 20.1087 11.719 19.8919 11.6586 19.648C11.5947 19.3929 11.4627 19.1597 11.2767 18.9739C11.0907 18.7879 10.8577 18.6559 10.6026 18.592C10.3586 18.5315 10.1419 18.3911 9.98706 18.1933C9.8322 17.9955 9.74805 17.7512 9.74805 17.5C9.74805 17.2488 9.8322 17.0045 9.98706 16.8067C10.1419 16.6089 10.3586 16.4685 10.6026 16.408C10.8577 16.3441 11.0907 16.2121 11.2767 16.0261C11.4627 15.8403 11.5947 15.6071 11.6586 15.352C11.7195 15.1086 11.86 14.8924 12.0579 14.7381C12.2557 14.5837 12.4996 14.4999 12.7506 14.5Z" fill="#A67DFE"/>
</g>
<defs>
<clipPath id="clip0_2071_2565">
<rect width="20" height="20" fill="white"/>
</clipPath>
</defs>
</svg>
