<svg width="20" height="20" viewBox="0 0 20 20" fill="none" xmlns="http://www.w3.org/2000/svg">
<g id="Sun--Streamline-Flex" clip-path="url(#clip0_2096_867)">
<g id="sun--photos-light-camera-mode-brightness-sun-photo-full">
<path id="Subtract" fill-rule="evenodd" clip-rule="evenodd" d="M8.31139 1.27009C9.1489 0.130674 10.8513 0.130674 11.6888 1.27009C12.4442 2.29781 13.7128 2.82167 14.9754 2.62877C16.3762 2.41474 17.5855 3.62397 17.3715 5.02485C17.1785 6.28745 17.7024 7.55597 18.7301 8.3114C19.8695 9.14891 19.8695 10.8513 18.7301 11.6888C17.7024 12.4443 17.1785 13.7128 17.3715 14.9754C17.5855 16.3763 16.3762 17.5854 14.9754 17.3714C13.7128 17.1786 12.4442 17.7024 11.6888 18.7301C10.8513 19.8696 9.1489 19.8696 8.31139 18.7301C7.55596 17.7024 6.28745 17.1786 5.02486 17.3714C3.62396 17.5854 2.41475 16.3763 2.62876 14.9754C2.82166 13.7128 2.29782 12.4443 1.27009 11.6888C0.130674 10.8513 0.130674 9.14891 1.27009 8.3114C2.29782 7.55597 2.82166 6.28745 2.62876 5.02485C2.41475 3.62397 3.62396 2.41474 5.02486 2.62877C6.28745 2.82167 7.55596 2.29781 8.31139 1.27009ZM14.3438 10.0001C14.3438 12.7801 12.78 14.3437 10.0001 14.3437C7.22023 14.3437 5.65653 12.7801 5.65653 10.0001C5.65653 7.22022 7.22023 5.65653 10.0001 5.65653C12.78 5.65653 14.3438 7.22022 14.3438 10.0001Z" fill="#A67DFE"/>
</g>
</g>
<defs>
<clipPath id="clip0_2096_867">
<rect width="20" height="20" fill="white"/>
</clipPath>
</defs>
</svg>
