<svg width="20" height="20" viewBox="0 0 20 20" fill="none" xmlns="http://www.w3.org/2000/svg">
<g id="Layers-1--Streamline-Flex" clip-path="url(#clip0_2071_2726)">
<g id="layers-1--design-layer-layers-pile-stack-align">
<path id="Union" fill-rule="evenodd" clip-rule="evenodd" d="M7.62283 0.402479C9.01973 -0.134078 10.949 -0.13317 12.3469 0.399267C13.4798 0.830736 14.6773 1.29536 15.7944 1.83133C16.9164 2.36954 17.8927 2.94866 18.7967 3.49489C19.415 3.86847 20.0013 4.49523 20 5.36379C19.9987 6.23273 19.4099 6.85796 18.7889 7.23006C17.884 7.77227 16.9083 8.34409 15.7946 8.87843C14.6849 9.41074 13.5016 9.87534 12.3772 10.3072C10.9803 10.8438 9.05101 10.8429 7.65309 10.3105C6.52024 9.87899 5.32273 9.41436 4.20554 8.8784C3.08364 8.34017 2.10724 7.76107 1.2033 7.21483C0.585063 6.84124 -0.00133357 6.21449 2.27797e-06 5.34594C0.00134788 4.477 0.590156 3.85177 1.21117 3.47966C2.11606 2.93746 3.09171 2.36563 4.2055 1.8313C5.31509 1.29898 6.4984 0.834376 7.62283 0.402479ZM0.136603 10.5954C0.424846 10.0786 1.07745 9.89334 1.59423 10.1816C2.5662 10.7237 3.5471 11.2592 4.66053 11.7522C5.77886 12.2474 6.99794 12.6854 8.22822 13.1179C9.24771 13.4763 10.7908 13.4758 11.8036 13.1167C13.0217 12.6848 14.2299 12.2457 15.3443 11.7522C16.4543 11.2607 17.4386 10.7296 18.409 10.1929C18.9269 9.9065 19.5787 10.0941 19.8651 10.6119C20.1516 11.1297 19.964 11.7817 19.4461 12.0681C18.4661 12.6101 17.413 13.1797 16.2119 13.7116C15.015 14.2415 13.7377 14.7046 12.5196 15.1364C11.0426 15.66 8.996 15.6593 7.51751 15.1394C6.29016 14.708 4.99767 14.245 3.79291 13.7115C2.58326 13.1759 1.52959 12.5992 0.550413 12.053C0.0336297 11.7648 -0.15164 11.1122 0.136603 10.5954ZM0.136603 15.0597C0.424846 14.5429 1.07745 14.3576 1.59423 14.6459C2.5662 15.188 3.5471 15.7234 4.66053 16.2164C5.77886 16.7117 6.99794 17.1497 8.22822 17.5821C9.24771 17.9406 10.7908 17.94 11.8036 17.581C13.0217 17.1491 14.2299 16.71 15.3443 16.2166C16.4543 15.725 17.4386 15.1939 18.409 14.6571C18.9269 14.3709 19.5787 14.5584 19.8651 15.0761C20.1516 15.594 19.964 16.246 19.4461 16.5323C18.4661 17.0744 17.413 17.644 16.2119 18.1759C15.015 18.7059 13.7377 19.1689 12.5196 19.6007C11.0426 20.1243 8.996 20.1236 7.51751 19.6037C6.29016 19.1723 4.99767 18.7093 3.79291 18.1759C2.58326 17.6401 1.52959 17.0634 0.550413 16.5173C0.0336297 16.2291 -0.15164 15.5764 0.136603 15.0597Z" fill="#A67DFE"/>
</g>
</g>
<defs>
<clipPath id="clip0_2071_2726">
<rect width="20" height="20" fill="white"/>
</clipPath>
</defs>
</svg>
