<svg width="20" height="20" viewBox="0 0 20 20" fill="none" xmlns="http://www.w3.org/2000/svg">
<g id="Show-Layer--Streamline-Flex">
<g id="show-layer--show-layer-work">
<path id="Union" fill-rule="evenodd" clip-rule="evenodd" d="M9.84347 2.71053C9.16616 2.61252 8.41221 2.52659 7.61433 2.51287C8.11046 1.39428 9.14524 0.547209 10.4129 0.363767C11.1125 0.262531 11.8484 0.182617 12.6064 0.182617C13.3643 0.182617 14.1003 0.262533 14.7998 0.363767C16.4948 0.609037 17.7733 2.04069 17.9048 3.72146C18.0103 5.07219 18.1123 6.48946 18.1123 7.94347C18.1123 9.39749 18.0103 10.8148 17.9048 12.1655C17.7733 13.8463 16.4948 15.2778 14.7998 15.5231C14.7132 15.5357 14.6259 15.548 14.5381 15.5597C14.6186 14.4497 14.6859 13.2698 14.6859 12.0575C14.6859 10.527 14.5786 9.04819 14.4729 7.69634C14.2792 5.21797 12.3987 3.0803 9.84347 2.71053ZM2.09574 7.83557C1.99014 9.1863 1.88818 10.6036 1.88818 12.0576C1.88818 13.5116 1.99014 14.9288 2.09574 16.2796C2.22714 17.9604 3.50577 19.392 5.20067 19.6373C5.90023 19.7386 6.63618 19.8184 7.39414 19.8184C8.15208 19.8184 8.88804 19.7386 9.58761 19.6373C11.2825 19.392 12.5611 17.9604 12.6925 16.2796C12.7981 14.9288 12.9001 13.5116 12.9001 12.0576C12.9001 10.6036 12.7981 9.1863 12.6925 7.83557C12.5611 6.1548 11.2825 4.72316 9.58761 4.47789C8.88804 4.37664 8.15208 4.29673 7.39414 4.29673C6.63618 4.29673 5.90023 4.37664 5.20067 4.47789C3.50577 4.72316 2.22714 6.1548 2.09574 7.83557Z" fill="#A67DFE"/>
</g>
</g>
</svg>
