<svg width="20" height="20" viewBox="0 0 20 20" fill="none" xmlns="http://www.w3.org/2000/svg">
<g id="svgexport-15 3" clip-path="url(#clip0_2071_2569)">
<path id="Vector" d="M10.0002 21C10.0002 19.4783 9.70679 18.0483 9.11989 16.71C8.5519 15.3716 7.7725 14.2075 6.78261 13.2175C5.79272 12.2275 4.62837 11.4483 3.29 10.88C1.95169 10.2933 0.521806 10 -1 10C0.521806 10 1.95169 9.71587 3.29 9.1475C4.62837 8.56087 5.79272 7.7725 6.78261 6.7825C7.7725 5.7925 8.5519 4.62837 9.11989 3.29C9.70679 1.95167 10.0002 0.521663 10.0002 -1C10.0002 0.521663 10.2842 1.95167 10.8526 3.29C11.4391 4.62837 12.2275 5.7925 13.2174 6.7825C14.2077 7.7725 15.3716 8.56087 16.71 9.1475C18.0483 9.71587 19.4786 10 21 10C19.4786 10 18.0483 10.2933 16.71 10.88C15.3716 11.4483 14.2077 12.2275 13.2174 13.2175C12.2275 14.2075 11.4391 15.3716 10.8526 16.71C10.2842 18.0483 10.0002 19.4783 10.0002 21Z" fill="#A67DFE"/>
</g>
<defs>
<clipPath id="clip0_2071_2569">
<rect width="20" height="20" fill="white"/>
</clipPath>
</defs>
</svg>
