<svg width="20" height="20" viewBox="0 0 20 20" fill="none" xmlns="http://www.w3.org/2000/svg">
<g id="Cloud-Data-Transfer--Streamline-Flex" clip-path="url(#clip0_2096_857)">
<g id="cloud-data-transfer--cloud-data-transfer-internet-server-network">
<path id="Union" fill-rule="evenodd" clip-rule="evenodd" d="M16.1118 5.64649C16.1556 5.6963 16.2132 5.73277 16.2775 5.7516C17.2091 5.96677 18.0278 6.50934 18.5786 7.27659C19.1296 8.04383 19.3744 8.98247 19.2668 9.9148C19.1591 10.8471 18.7065 11.7084 17.9946 12.3355C17.3676 12.8879 16.5649 13.333 15.6504 13.6739C15.3309 13.4752 14.9721 13.338 14.5945 13.2745V11.473C14.5945 9.89509 13.3153 8.6159 11.7374 8.6159C11.0921 8.6159 10.4967 8.82983 10.0184 9.19064C9.9035 9.10234 9.77673 9.01959 9.63699 8.94407C8.34135 8.24401 7.14535 8.8109 6.62329 9.1935C5.97583 9.668 4.62238 10.8893 3.57968 12.2419C3.43045 12.4355 3.30405 12.6503 3.20682 12.8813C2.86355 12.6789 2.54995 12.4583 2.27178 12.2199C1.35866 11.4374 0.800028 10.3312 0.718778 9.14486C0.637528 7.95849 1.04032 6.78906 1.83853 5.89384C2.23378 5.45057 2.71419 5.08797 3.25236 4.82673C3.79055 4.5655 4.37593 4.41073 4.9751 4.37129L4.98749 4.37133C5.00472 4.37231 5.02208 4.37281 5.03955 4.37281C5.7297 4.37281 6.40513 4.60196 6.96598 4.9527C7.53746 5.31011 7.91962 5.74879 8.07885 6.08867C8.28805 6.53521 8.81962 6.72761 9.26616 6.51841C9.71269 6.30921 9.9051 5.77764 9.6959 5.3311C9.35638 4.60637 8.69858 3.93009 7.91282 3.43869C7.52916 3.19874 7.09848 2.99236 6.63459 2.84287C6.38423 2.76219 6.27368 2.4564 6.45468 2.26553C6.78345 1.91883 7.15923 1.61343 7.57423 1.35893C8.64865 0.700054 9.92098 0.4222 11.179 0.571704C12.4371 0.721209 13.6049 1.28903 14.4876 2.18049C15.3704 3.07194 15.9146 4.23313 16.0298 5.47043C16.0395 5.53557 16.0679 5.59666 16.1118 5.64649ZM9.3128 13.9709V14.4969L9.31275 18.5607C9.31275 19.1524 8.83306 19.6321 8.24132 19.6321C7.64959 19.6321 7.16989 19.1524 7.16989 18.5607V14.6941C6.88479 14.7293 6.59298 14.8063 6.28669 14.9297C5.83305 15.1124 5.35372 14.9801 5.0598 14.6717C4.91106 14.5156 4.79729 14.3006 4.77646 14.0473C4.75495 13.7856 4.83728 13.5353 4.99388 13.3321C5.93036 12.1173 7.16178 11.0127 7.6788 10.6338C7.85842 10.5022 8.12912 10.3791 8.42619 10.4051C8.4522 10.4074 8.4784 10.4108 8.50478 10.4154C8.59788 10.4319 8.69298 10.4637 8.78812 10.5151C8.86841 10.5585 8.93713 10.6097 8.99578 10.6661C9.07472 10.7422 9.13539 10.8279 9.18136 10.9172C9.18712 10.9284 9.19266 10.9397 9.19796 10.951C9.24639 11.054 9.27618 11.1607 9.2927 11.2621C9.29425 11.2716 9.29566 11.2809 9.29699 11.2903C9.30603 11.3545 9.30985 11.4162 9.30985 11.473V13.8907C9.3118 13.9172 9.3128 13.9439 9.3128 13.9709ZM15.2022 15.9863C15.2236 16.2481 15.1414 16.4984 14.9848 16.7016C14.0483 17.9164 12.8169 19.021 12.2998 19.3999C12.049 19.5837 11.6205 19.7509 11.1906 19.5186C10.7745 19.2937 10.6689 18.8599 10.6689 18.561V16.143C10.6669 16.1166 10.6659 16.0899 10.6659 16.0629V11.473C10.6659 10.8813 11.1456 10.4016 11.7373 10.4016C12.3291 10.4016 12.8088 10.8813 12.8088 11.473V15.3396C13.0939 15.3044 13.3857 15.2273 13.692 15.104C14.1456 14.9213 14.6249 15.0536 14.9188 15.362C15.0676 15.5181 15.1814 15.733 15.2022 15.9863Z" fill="#A67DFE"/>
</g>
</g>
<defs>
<clipPath id="clip0_2096_857">
<rect width="20" height="20" fill="white"/>
</clipPath>
</defs>
</svg>
