<svg width="20" height="20" viewBox="0 0 20 20" fill="none" xmlns="http://www.w3.org/2000/svg">
<g id="Ai-Generate-Portrait-Image-Spark--Streamline-Flex" clip-path="url(#clip0_2096_862)">
<g id="ai-generate-portrait-image-spark--picture-photography-photo-image-artificial-intelligence-ai">
<path id="Union" fill-rule="evenodd" clip-rule="evenodd" d="M14.2114 1.22747C14.0081 1.61038 13.8009 2.00053 13.3909 2.4105C12.9809 2.82047 12.5908 3.02764 12.2079 3.23098C11.9365 3.3751 11.6688 3.51728 11.4002 3.72837C10.8933 4.12674 10.8933 4.88094 11.4002 5.27931C11.6688 5.49038 11.9366 5.63257 12.2079 5.77668C12.5909 5.98003 12.981 6.18721 13.391 6.59718C13.8009 7.00715 14.0081 7.3973 14.2115 7.78021C14.3556 8.05158 14.4978 8.31934 14.7088 8.58792C15.1072 9.09485 15.8614 9.09485 16.2598 8.58792C16.4709 8.31934 16.6131 8.05158 16.7572 7.78021C16.9605 7.3973 17.1676 7.00715 17.5776 6.59718C17.9876 6.18721 18.3778 5.98003 18.7606 5.77668C19.0321 5.63257 19.2998 5.49038 19.5684 5.27931C20.0752 4.88094 20.0752 4.12674 19.5684 3.72837C19.2998 3.51728 19.0321 3.37511 18.7606 3.231C18.3778 3.02765 17.9875 2.82047 17.5776 2.4105C17.1676 2.00053 16.9605 1.61038 16.7571 1.22747C16.6129 0.956085 16.4708 0.688338 16.2598 0.419742C15.8614 -0.0871799 15.1072 -0.0871797 14.7088 0.419742C14.4976 0.68834 14.3555 0.956085 14.2114 1.22747ZM10.2968 6.68335C9.51892 6.07203 9.16817 5.15344 9.24455 4.26504C8.80791 4.24125 8.36595 4.22725 7.91985 4.22725C6.61934 4.22725 5.35399 4.34615 4.15291 4.48003C2.13192 4.7053 0.509209 6.32594 0.292459 8.35187C0.164583 9.5471 0.0532227 10.8033 0.0532227 12.0939C0.0532227 13.3845 0.164583 14.6407 0.292459 15.8359C0.509211 17.8619 2.13194 19.4824 4.15291 19.7077C5.35399 19.8416 6.61934 19.9606 7.91985 19.9606C9.22037 19.9606 10.4857 19.8416 11.6868 19.7077C13.7078 19.4824 15.3305 17.8619 15.5472 15.8359C15.6751 14.6407 15.7865 13.3845 15.7865 12.0939C15.7865 11.6383 15.7726 11.1871 15.7491 10.7412C14.8526 10.8268 13.9221 10.4768 13.3048 9.69131C12.9842 9.28337 12.7561 8.85033 12.6157 8.58361L12.615 8.58231C12.5915 8.53773 12.5702 8.49717 12.5516 8.46287C12.4083 8.19834 12.3024 8.03398 12.1283 7.85987C11.9542 7.68575 11.7898 7.57984 11.5253 7.43657C11.4905 7.41774 11.4499 7.39634 11.4045 7.37245C11.1378 7.232 10.7048 7.00393 10.2968 6.68335ZM10.8471 15.9531C11.4395 16.4373 11.8988 17.0576 12.1898 17.7553C11.968 17.8487 11.7309 17.9119 11.484 17.9394C10.2983 18.0716 9.11298 18.1811 7.91492 18.1811C6.71685 18.1811 5.53152 18.0716 4.34579 17.9394C4.10252 17.9123 3.86879 17.8506 3.64977 17.7593C3.94974 17.0637 4.41287 16.4243 4.98944 15.9531C5.81601 15.2774 6.85072 14.9084 7.91827 14.9084C8.98581 14.9084 10.0205 15.2774 10.8471 15.9531ZM7.91978 13.3935C9.56292 13.3935 10.4872 12.4692 10.4872 10.8261C10.4872 9.18294 9.56292 8.25868 7.91978 8.25868C6.27665 8.25868 5.35238 9.18294 5.35238 10.8261C5.35238 12.4692 6.27665 13.3935 7.91978 13.3935Z" fill="#A67DFE"/>
</g>
</g>
<defs>
<clipPath id="clip0_2096_862">
<rect width="20" height="20" fill="white"/>
</clipPath>
</defs>
</svg>
