<svg width="155" height="49" viewBox="0 0 155 49" fill="none" xmlns="http://www.w3.org/2000/svg">
<g id="Logo">
<g id="Union">
<path d="M41.4601 6.98747C36.8417 6.96247 32.2232 6.94352 27.6047 6.93137C20.5576 6.91285 12.97 6.91138 11.4016 6.99087C9.52141 7.08617 6.77072 7.74086 4.41581 9.47153C1.94068 11.2905 0 14.2461 0 18.5366V48.8342C1.64568 48.0887 3.28345 47.323 4.94471 46.6126C8.29267 45.1809 11.7493 43.7693 15.324 43.0383C18.5915 42.3701 22.0771 42.3573 25.3189 42.5365C26.7293 42.6145 28.0598 42.7263 29.3044 42.8309L29.3048 42.831C30.7347 42.9512 32.1685 43.0927 33.6045 43.0927C39.0353 43.0927 44.1339 38.3825 44.1339 31.2071V17.6396H38.7572V31.2071C38.7572 35.6931 35.7907 37.7106 33.6045 37.7106C32.3232 37.7106 31.0378 37.5756 29.761 37.4682C28.5204 37.3638 27.1086 37.2451 25.6154 37.1625C22.2002 36.9737 18.1808 36.9608 14.2479 37.765C11.2061 38.387 8.2572 39.4725 5.37672 40.6149V18.5366C5.37672 16.0994 6.38576 14.7007 7.59778 13.81C8.93004 12.8309 10.6039 12.4204 11.6735 12.3661C13.0548 12.2961 20.4211 12.2947 27.5906 12.3135C35.951 12.3355 40.6608 12.3653 44.1189 12.3845L44.1487 7.00238L41.4604 6.98747C41.4604 6.98877 41.4601 6.98747 41.4601 6.98747Z" fill="url(#paint0_linear_4002_398)"/>
<path d="M30.244 17.6397C30.244 19.605 29.4148 21.6392 27.8771 23.0841C26.3338 24.5345 24.2062 25.3765 21.9549 25.3765C19.7036 25.3765 17.5761 24.5345 16.0327 23.0841C14.4951 21.6392 13.6658 19.605 13.6658 17.6397H8.2891C8.2891 21.1461 9.77295 24.5839 12.3527 27.0081C14.9267 29.427 18.3834 30.7586 21.9549 30.7586C25.5264 30.7586 28.9832 29.427 31.5572 27.0081C34.1369 24.5839 35.6207 21.1461 35.6207 17.6397H30.244Z" fill="url(#paint1_linear_4002_398)"/>
</g>
<g id="aipie">
<path d="M62.5871 37.7305C60.8774 37.7305 59.3258 37.4085 57.9323 36.7644C56.5387 36.1087 55.4321 35.166 54.6124 33.9364C53.7927 32.6951 53.3828 31.1962 53.3828 29.4397C53.3828 27.8939 53.6873 26.6409 54.2962 25.6807C54.9051 24.7087 55.719 23.9475 56.7378 23.3971C57.7566 22.8468 58.8808 22.4369 60.1104 22.1676C61.3517 21.8865 62.5988 21.664 63.8518 21.5001C65.4912 21.2893 66.8204 21.1312 67.8392 21.0258C68.8697 20.9087 69.6191 20.7155 70.0875 20.4462C70.5677 20.1768 70.8077 19.7084 70.8077 19.0409V18.9004C70.8077 17.1673 70.3335 15.8206 69.3849 14.8603C68.4481 13.9001 67.0253 13.42 65.1165 13.42C63.1375 13.42 61.5859 13.8533 60.4617 14.7198C59.3375 15.5864 58.547 16.5115 58.0903 17.4952L54.1557 16.0899C54.8583 14.4505 55.7951 13.1741 56.9662 12.2607C58.1489 11.3356 59.437 10.6915 60.8306 10.3285C62.2358 9.95374 63.6176 9.76638 64.976 9.76638C65.8426 9.76638 66.8379 9.87177 67.9621 10.0826C69.098 10.2816 70.1929 10.6973 71.2469 11.3297C72.3125 11.9621 73.1966 12.9164 73.8992 14.1929C74.6018 15.4693 74.9532 17.179 74.9532 19.322V37.0982H70.8077V33.4446H70.5969C70.3159 34.0301 69.8475 34.6566 69.1917 35.3241C68.5359 35.9916 67.6635 36.5595 66.5744 37.0279C65.4854 37.4963 64.1563 37.7305 62.5871 37.7305ZM63.2195 34.0067C64.8589 34.0067 66.2407 33.6846 67.3649 33.0406C68.5008 32.3965 69.3556 31.5651 69.9294 30.5463C70.515 29.5275 70.8077 28.456 70.8077 27.3318V23.5377C70.6321 23.7485 70.2456 23.9417 69.6484 24.1173C69.0629 24.2813 68.3837 24.4277 67.6108 24.5565C66.8496 24.6736 66.106 24.779 65.38 24.8726C64.6657 24.9546 64.086 25.0249 63.641 25.0834C62.5637 25.2239 61.5566 25.4523 60.6198 25.7685C59.6947 26.0729 58.9452 26.5355 58.3714 27.1561C57.8093 27.7651 57.5283 28.5965 57.5283 29.6504C57.5283 31.0908 58.0611 32.1799 59.1267 32.9176C60.2041 33.6436 61.5683 34.0067 63.2195 34.0067Z" fill="white"/>
<path d="M81.5302 37.0982V10.1177H85.6756V37.0982H81.5302ZM83.638 5.62094C82.83 5.62094 82.1333 5.34574 81.5477 4.79536C80.9739 4.24498 80.687 3.58335 80.687 2.81047C80.687 2.03759 80.9739 1.37596 81.5477 0.825574C82.1333 0.275191 82.83 0 83.638 0C84.446 0 85.1369 0.275191 85.7108 0.825574C86.2963 1.37596 86.589 2.03759 86.589 2.81047C86.589 3.58335 86.2963 4.24498 85.7108 4.79536C85.1369 5.34574 84.446 5.62094 83.638 5.62094Z" fill="white"/>
<path d="M92.279 47.2159V10.1177H96.2839V14.4036H96.7757C97.0802 13.9352 97.5018 13.338 98.0405 12.612C98.5908 11.8742 99.3754 11.2185 100.394 10.6446C101.425 10.0591 102.818 9.76638 104.575 9.76638C106.847 9.76638 108.849 10.3343 110.582 11.4702C112.315 12.6061 113.668 14.2163 114.64 16.3007C115.612 18.3851 116.098 20.8443 116.098 23.6782C116.098 26.5355 115.612 29.0122 114.64 31.1084C113.668 33.1928 112.321 34.8088 110.6 35.9564C108.878 37.0923 106.893 37.6603 104.645 37.6603C102.912 37.6603 101.524 37.3734 100.482 36.7996C99.4398 36.2141 98.6377 35.5524 98.0756 34.8147C97.5135 34.0652 97.0802 33.4446 96.7757 32.9527H96.4244V47.2159H92.279ZM96.3542 23.6079C96.3542 25.6455 96.6528 27.443 97.25 29.0005C97.8472 30.5463 98.7197 31.7583 99.8673 32.6366C101.015 33.5031 102.42 33.9364 104.083 33.9364C105.816 33.9364 107.262 33.4797 108.422 32.5663C109.593 31.6412 110.471 30.3999 111.056 28.8424C111.654 27.2732 111.952 25.5284 111.952 23.6079C111.952 21.7109 111.66 20.0012 111.074 18.4788C110.5 16.9448 109.628 15.7328 108.457 14.8428C107.297 13.9411 105.84 13.4902 104.083 13.4902C102.397 13.4902 100.98 13.9177 99.8321 14.7725C98.6845 15.6157 97.818 16.7984 97.2324 18.3207C96.6469 19.8314 96.3542 21.5938 96.3542 23.6079Z" fill="white"/>
<path d="M121.432 37.0982V10.1177H125.577V37.0982H121.432ZM123.54 5.62094C122.732 5.62094 122.035 5.34574 121.45 4.79536C120.876 4.24498 120.589 3.58335 120.589 2.81047C120.589 2.03759 120.876 1.37596 121.45 0.825574C122.035 0.275191 122.732 0 123.54 0C124.348 0 125.039 0.275191 125.613 0.825574C126.198 1.37596 126.491 2.03759 126.491 2.81047C126.491 3.58335 126.198 4.24498 125.613 4.79536C125.039 5.34574 124.348 5.62094 123.54 5.62094Z" fill="white"/>
<path d="M143.493 37.6603C140.893 37.6603 138.651 37.0865 136.765 35.9389C134.892 34.7795 133.446 33.1635 132.427 31.0908C131.42 29.0064 130.916 26.5823 130.916 23.8187C130.916 21.0551 131.42 18.6194 132.427 16.5115C133.446 14.3919 134.862 12.7408 136.678 11.558C138.504 10.3636 140.636 9.76638 143.071 9.76638C144.477 9.76638 145.864 10.0006 147.234 10.469C148.604 10.9374 149.852 11.6986 150.976 12.7525C152.1 13.7947 152.996 15.1765 153.663 16.8979C154.331 18.6194 154.665 20.7389 154.665 23.2566V25.0132H133.867V21.4298H150.449C150.449 19.9075 150.144 18.5491 149.535 17.3546C148.938 16.1602 148.083 15.2175 146.971 14.5266C145.87 13.8357 144.57 13.4902 143.071 13.4902C141.42 13.4902 139.992 13.9001 138.785 14.7198C137.591 15.5278 136.672 16.5818 136.028 17.8816C135.384 19.1814 135.062 20.575 135.062 22.0622V24.4511C135.062 26.4887 135.413 28.2159 136.115 29.6329C136.83 31.0381 137.819 32.1096 139.084 32.8473C140.349 33.5734 141.818 33.9364 143.493 33.9364C144.582 33.9364 145.566 33.7842 146.444 33.4797C147.334 33.1635 148.101 32.6951 148.745 32.0745C149.389 31.4421 149.887 30.6575 150.238 29.7207L154.243 30.8449C153.821 32.2033 153.113 33.3977 152.118 34.4282C151.122 35.447 149.893 36.2433 148.429 36.8171C146.965 37.3792 145.32 37.6603 143.493 37.6603Z" fill="white"/>
</g>
</g>
<defs>
<linearGradient id="paint0_linear_4002_398" x1="44.1487" y1="17.6039" x2="1.71344e-06" y2="49.458" gradientUnits="userSpaceOnUse">
<stop stop-color="#0166FF"/>
<stop offset="0.0666667" stop-color="#0265FE"/>
<stop offset="0.133333" stop-color="#0462FC"/>
<stop offset="0.2" stop-color="#075EF8"/>
<stop offset="0.266667" stop-color="#0C57F2"/>
<stop offset="0.333333" stop-color="#124EEB"/>
<stop offset="0.4" stop-color="#1944E3"/>
<stop offset="0.466667" stop-color="#2139D9"/>
<stop offset="0.533333" stop-color="#292DD0"/>
<stop offset="0.6" stop-color="#3122C6"/>
<stop offset="0.666667" stop-color="#3818BE"/>
<stop offset="0.733333" stop-color="#3E0FB7"/>
<stop offset="0.8" stop-color="#4308B1"/>
<stop offset="0.866667" stop-color="#4604AD"/>
<stop offset="0.933333" stop-color="#4801AB"/>
<stop offset="1" stop-color="#4900AA"/>
</linearGradient>
<linearGradient id="paint1_linear_4002_398" x1="44.1487" y1="17.6039" x2="1.71344e-06" y2="49.458" gradientUnits="userSpaceOnUse">
<stop stop-color="#0166FF"/>
<stop offset="0.0666667" stop-color="#0265FE"/>
<stop offset="0.133333" stop-color="#0462FC"/>
<stop offset="0.2" stop-color="#075EF8"/>
<stop offset="0.266667" stop-color="#0C57F2"/>
<stop offset="0.333333" stop-color="#124EEB"/>
<stop offset="0.4" stop-color="#1944E3"/>
<stop offset="0.466667" stop-color="#2139D9"/>
<stop offset="0.533333" stop-color="#292DD0"/>
<stop offset="0.6" stop-color="#3122C6"/>
<stop offset="0.666667" stop-color="#3818BE"/>
<stop offset="0.733333" stop-color="#3E0FB7"/>
<stop offset="0.8" stop-color="#4308B1"/>
<stop offset="0.866667" stop-color="#4604AD"/>
<stop offset="0.933333" stop-color="#4801AB"/>
<stop offset="1" stop-color="#4900AA"/>
</linearGradient>
</defs>
</svg>
